<svg width="70" height="72" viewBox="0 0 70 72" fill="none" xmlns="http://www.w3.org/2000/svg">
<rect x="1.5" y="1.5" width="67" height="69" rx="18.5" fill="#059669" stroke="#059669" stroke-width="3"/>
<path d="M7.464 45.4958V26.3758L5.064 25.9278V23.9598H9.992C10.664 23.9598 11.288 23.9438 11.864 23.9118C12.44 23.8691 12.9947 23.8318 13.528 23.7998C14.072 23.7571 14.6213 23.7358 15.176 23.7358C16.9253 23.7358 18.3707 23.8638 19.512 24.1198C20.664 24.3651 21.5653 24.7331 22.216 25.2238C22.8773 25.7038 23.3413 26.2744 23.608 26.9358C23.8853 27.5971 24.024 28.3438 24.024 29.1758C24.024 30.2531 23.8 31.2078 23.352 32.0398C22.904 32.8611 22.2853 33.5331 21.496 34.0558C20.7067 34.5678 19.816 34.8931 18.824 35.0318C20.2107 35.0318 21.4107 35.2451 22.424 35.6718C23.448 36.0984 24.2373 36.7278 24.792 37.5598C25.3573 38.3811 25.64 39.3784 25.64 40.5518C25.64 41.5758 25.4747 42.5358 25.144 43.4318C24.824 44.3171 24.2747 45.0958 23.496 45.7678C22.728 46.4398 21.6827 46.9678 20.36 47.3518C19.0373 47.7358 17.3787 47.9278 15.384 47.9278C14.6267 47.9278 13.976 47.9118 13.432 47.8798C12.8987 47.8478 12.3707 47.8158 11.848 47.7838C11.336 47.7518 10.728 47.7358 10.024 47.7358H5V45.8638L7.464 45.4958ZM12.6 34.3438C12.76 34.3544 12.952 34.3651 13.176 34.3758C13.4 34.3864 13.6347 34.3971 13.88 34.4078C14.1253 34.4078 14.3707 34.4078 14.616 34.4078C14.8613 34.4078 15.08 34.4078 15.272 34.4078C16.1253 34.4078 16.8133 34.2104 17.336 33.8158C17.8693 33.4211 18.2587 32.8718 18.504 32.1678C18.76 31.4638 18.888 30.6371 18.888 29.6878C18.888 28.3118 18.584 27.2931 17.976 26.6318C17.368 25.9704 16.344 25.6398 14.904 25.6398C14.7013 25.6398 14.4453 25.6504 14.136 25.6718C13.8267 25.6931 13.528 25.7198 13.24 25.7518C12.9627 25.7731 12.7493 25.7944 12.6 25.8158V34.3438ZM12.6 45.6718C12.7707 45.7358 13.0053 45.7891 13.304 45.8318C13.6027 45.8638 13.9227 45.8904 14.264 45.9118C14.6053 45.9224 14.92 45.9278 15.208 45.9278C16.3707 45.9278 17.2987 45.7251 17.992 45.3198C18.6853 44.9038 19.1813 44.3224 19.48 43.5758C19.7893 42.8184 19.944 41.9278 19.944 40.9038C19.944 39.3144 19.592 38.1944 18.888 37.5438C18.1947 36.8824 17.1067 36.5518 15.624 36.5518C15.3893 36.5518 15.128 36.5571 14.84 36.5678C14.552 36.5678 14.264 36.5731 13.976 36.5838C13.688 36.5838 13.4267 36.5891 13.192 36.5998C12.9573 36.5998 12.76 36.6051 12.6 36.6158V45.6718Z" fill="#F3F4F6"/>
<path d="M33.557 45.4958V38.2638L27.061 26.3598L25.269 25.9118C25.269 25.9118 24.7984 25.9909 25.64 23.9118C26.2572 22.3872 31.0523 23.1243 33.5662 23.626C34.4682 23.806 35.093 24.606 35.093 25.5259V25.9118L32.949 26.3598L36.773 34.1998L37.605 36.3118L38.469 34.1998L41.989 26.3598L40.4258 26.0862C39.8495 25.9854 39.429 25.4849 39.429 24.8999C39.429 24.3473 39.8044 23.8666 40.3448 23.751C42.3711 23.3177 47.0843 22.4786 47.445 23.9598C47.9055 25.8509 47.445 25.9118 47.445 25.9118L45.381 26.3118L39.013 38.1838V45.5118L42.421 45.8638V47.7358H30.277V45.8638L33.557 45.4958Z" fill="#F3F4F6"/>
<path d="M55.5175 48.0878C54.2268 48.0878 53.0802 47.9758 52.0775 47.7518C51.0748 47.5278 50.2215 47.3038 49.5175 47.0798C48.8242 46.8451 48.2908 46.7118 47.9175 46.6798L48.2215 40.7438H51.0535L51.8055 44.9038C51.9762 45.0851 52.2322 45.2718 52.5735 45.4638C52.9148 45.6451 53.3308 45.7998 53.8215 45.9278C54.3228 46.0451 54.8882 46.1038 55.5175 46.1038C56.4775 46.1038 57.2615 45.9598 57.8695 45.6718C58.4882 45.3838 58.9415 44.9784 59.2295 44.4558C59.5282 43.9331 59.6775 43.3411 59.6775 42.6798C59.6775 41.9118 59.4428 41.2504 58.9735 40.6958C58.5148 40.1411 57.8748 39.6291 57.0535 39.1598C56.2322 38.6904 55.2775 38.2051 54.1895 37.7038C53.5708 37.4051 52.9042 37.0531 52.1895 36.6478C51.4855 36.2318 50.8188 35.7304 50.1895 35.1438C49.5708 34.5464 49.0642 33.8424 48.6695 33.0318C48.2748 32.2104 48.0775 31.2504 48.0775 30.1518C48.0775 28.9998 48.3975 27.9331 49.0375 26.9518C49.6775 25.9598 50.6322 25.1651 51.9015 24.5678C53.1708 23.9598 54.7602 23.6558 56.6695 23.6558C57.5762 23.6558 58.3815 23.7091 59.0855 23.8158C59.7895 23.9224 60.4082 24.0504 60.9415 24.1998C61.4855 24.3384 61.9495 24.4664 62.3335 24.5838C62.7175 24.7011 63.0268 24.7704 63.2615 24.7918L63.0055 30.4398H60.2535L59.5495 26.4238C59.4642 26.2958 59.2828 26.1731 59.0055 26.0558C58.7282 25.9278 58.3868 25.8211 57.9815 25.7358C57.5762 25.6398 57.1228 25.5918 56.6215 25.5918C55.7575 25.5918 55.0535 25.7304 54.5095 26.0078C53.9655 26.2851 53.5602 26.6531 53.2935 27.1118C53.0375 27.5704 52.9095 28.0824 52.9095 28.6478C52.9095 29.5224 53.1708 30.2584 53.6935 30.8558C54.2162 31.4531 54.9095 31.9864 55.7735 32.4558C56.6482 32.9251 57.5868 33.4158 58.5895 33.9278C59.2508 34.2371 59.9388 34.5998 60.6535 35.0158C61.3788 35.4318 62.0508 35.9171 62.6695 36.4718C63.2882 37.0158 63.7895 37.6558 64.1735 38.3918C64.5682 39.1278 64.7655 39.9864 64.7655 40.9678C64.7655 41.7998 64.6055 42.6371 64.2855 43.4798C63.9762 44.3118 63.4642 45.0798 62.7495 45.7838C62.0348 46.4771 61.0855 47.0371 59.9015 47.4638C58.7175 47.8798 57.2562 48.0878 55.5175 48.0878Z" fill="#F3F4F6"/>
<circle cx="37" cy="28" r="2" fill="#F3F4F6"/>
</svg>
